<?xml version="1.0" encoding="UTF-8"?>
<svg version="1.1" xmlns="http://www.w3.org/2000/svg" width="28" height="28">
<path d="M0 0 C9.24 0 18.48 0 28 0 C28 9.24 28 18.48 28 28 C18.76 28 9.52 28 0 28 C0 18.76 0 9.52 0 0 Z " fill="#FAFAFA" transform="translate(0,0)"/>
<path d="M0 0 C1.79244141 0.01740234 1.79244141 0.01740234 3.62109375 0.03515625 C5.41740234 0.04869141 5.41740234 0.04869141 7.25 0.0625 C8.17683594 0.07410156 9.10367187 0.08570313 10.05859375 0.09765625 C10.05859375 1.08765625 10.05859375 2.07765625 10.05859375 3.09765625 C6.42859375 3.09765625 2.79859375 3.09765625 -0.94140625 3.09765625 C-0.94140625 4.08765625 -0.94140625 5.07765625 -0.94140625 6.09765625 C2.68859375 6.09765625 6.31859375 6.09765625 10.05859375 6.09765625 C10.05859375 6.75765625 10.05859375 7.41765625 10.05859375 8.09765625 C6.42859375 8.09765625 2.79859375 8.09765625 -0.94140625 8.09765625 C-0.94140625 9.08765625 -0.94140625 10.07765625 -0.94140625 11.09765625 C2.68859375 11.09765625 6.31859375 11.09765625 10.05859375 11.09765625 C10.05859375 12.08765625 10.05859375 13.07765625 10.05859375 14.09765625 C7.91282738 14.12451563 5.7669673 14.14398713 3.62109375 14.16015625 C2.42613281 14.17175781 1.23117187 14.18335938 0 14.1953125 C-2.94140625 14.09765625 -2.94140625 14.09765625 -3.94140625 13.09765625 C-4.04014441 11.09966053 -4.07112424 9.09808467 -4.06640625 7.09765625 C-4.06898438 6.00453125 -4.0715625 4.91140625 -4.07421875 3.78515625 C-3.88830844 0.02320635 -3.79903485 0.12612998 0 0 Z " fill="#070707" transform="translate(10.94140625,6.90234375)"/>
</svg>
